<svg xmlns="http://www.w3.org/2000/svg" xmlns:xlink="http://www.w3.org/1999/xlink" version="1.1" width="256" height="256" viewBox="0 0 256 256" xml:space="preserve">

<defs>
</defs>
<g style="stroke: none; stroke-width: 0; stroke-dasharray: none; stroke-linecap: butt; stroke-linejoin: miter; stroke-miterlimit: 10; fill: none; fill-rule: nonzero; opacity: 1;" transform="translate(1.4065934065934016 1.4065934065934016) scale(2.81 2.81)" >
	<path d="M 64.095 15.942 H 48.905 c -0.553 0 -1 -0.448 -1 -1 s 0.447 -1 1 -1 h 15.189 c 0.553 0 1 0.448 1 1 S 64.647 15.942 64.095 15.942 z" style="stroke: none; stroke-width: 1; stroke-dasharray: none; stroke-linecap: butt; stroke-linejoin: miter; stroke-miterlimit: 10; fill: rgb(0,0,0); fill-rule: nonzero; opacity: 1;" transform=" matrix(1 0 0 1 0 0) " stroke-linecap="round" />
	<path d="M 41.095 15.942 H 25.905 c -0.552 0 -1 -0.448 -1 -1 s 0.448 -1 1 -1 h 15.189 c 0.552 0 1 0.448 1 1 S 41.647 15.942 41.095 15.942 z" style="stroke: none; stroke-width: 1; stroke-dasharray: none; stroke-linecap: butt; stroke-linejoin: miter; stroke-miterlimit: 10; fill: rgb(0,0,0); fill-rule: nonzero; opacity: 1;" transform=" matrix(1 0 0 1 0 0) " stroke-linecap="round" />
	<path d="M 84.137 83.859 H 5.863 C 2.63 83.859 0 81.229 0 77.996 V 19.805 c 0 -3.233 2.63 -5.863 5.863 -5.863 h 12.231 c 0.552 0 1 0.448 1 1 s -0.448 1 -1 1 H 5.863 C 3.733 15.942 2 17.675 2 19.805 v 58.191 c 0 2.13 1.733 3.863 3.863 3.863 h 78.273 c 2.13 0 3.863 -1.733 3.863 -3.863 V 19.805 c 0 -2.13 -1.733 -3.863 -3.863 -3.863 H 71.905 c -0.553 0 -1 -0.448 -1 -1 s 0.447 -1 1 -1 h 12.231 c 3.233 0 5.863 2.63 5.863 5.863 v 58.191 C 90 81.229 87.37 83.859 84.137 83.859 z" style="stroke: none; stroke-width: 1; stroke-dasharray: none; stroke-linecap: butt; stroke-linejoin: miter; stroke-miterlimit: 10; fill: rgb(0,0,0); fill-rule: nonzero; opacity: 1;" transform=" matrix(1 0 0 1 0 0) " stroke-linecap="round" />
	<path d="M 22.293 51.252 h -8.587 c -1.442 0 -2.615 -1.173 -2.615 -2.615 V 40.05 c 0 -1.442 1.173 -2.616 2.615 -2.616 h 8.587 c 1.442 0 2.615 1.173 2.615 2.616 v 8.587 C 24.909 50.079 23.735 51.252 22.293 51.252 z M 13.707 39.434 c -0.339 0 -0.615 0.276 -0.615 0.616 v 8.587 c 0 0.339 0.276 0.615 0.615 0.615 h 8.587 c 0.339 0 0.615 -0.276 0.615 -0.615 V 40.05 c 0 -0.339 -0.276 -0.616 -0.615 -0.616 H 13.707 z" style="stroke: none; stroke-width: 1; stroke-dasharray: none; stroke-linecap: butt; stroke-linejoin: miter; stroke-miterlimit: 10; fill: rgb(0,0,0); fill-rule: nonzero; opacity: 1;" transform=" matrix(1 0 0 1 0 0) " stroke-linecap="round" />
	<path d="M 49.293 51.252 h -8.586 c -1.442 0 -2.615 -1.173 -2.615 -2.615 V 40.05 c 0 -1.442 1.173 -2.616 2.615 -2.616 h 8.586 c 1.442 0 2.616 1.173 2.616 2.616 v 8.587 C 51.909 50.079 50.735 51.252 49.293 51.252 z M 40.707 39.434 c -0.339 0 -0.615 0.276 -0.615 0.616 v 8.587 c 0 0.339 0.276 0.615 0.615 0.615 h 8.586 c 0.34 0 0.616 -0.276 0.616 -0.615 V 40.05 c 0 -0.339 -0.276 -0.616 -0.616 -0.616 H 40.707 z" style="stroke: none; stroke-width: 1; stroke-dasharray: none; stroke-linecap: butt; stroke-linejoin: miter; stroke-miterlimit: 10; fill: rgb(0,0,0); fill-rule: nonzero; opacity: 1;" transform=" matrix(1 0 0 1 0 0) " stroke-linecap="round" />
	<path d="M 76.293 51.252 h -8.586 c -1.442 0 -2.616 -1.173 -2.616 -2.615 V 40.05 c 0 -1.442 1.174 -2.616 2.616 -2.616 h 8.586 c 1.442 0 2.616 1.173 2.616 2.616 v 8.587 C 78.909 50.079 77.735 51.252 76.293 51.252 z M 67.707 39.434 c -0.34 0 -0.616 0.276 -0.616 0.616 v 8.587 c 0 0.339 0.276 0.615 0.616 0.615 h 8.586 c 0.34 0 0.616 -0.276 0.616 -0.615 V 40.05 c 0 -0.339 -0.276 -0.616 -0.616 -0.616 H 67.707 z" style="stroke: none; stroke-width: 1; stroke-dasharray: none; stroke-linecap: butt; stroke-linejoin: miter; stroke-miterlimit: 10; fill: rgb(0,0,0); fill-rule: nonzero; opacity: 1;" transform=" matrix(1 0 0 1 0 0) " stroke-linecap="round" />
	<path d="M 22.293 74.252 h -8.587 c -1.442 0 -2.615 -1.173 -2.615 -2.615 V 63.05 c 0 -1.442 1.173 -2.615 2.615 -2.615 h 8.587 c 1.442 0 2.615 1.173 2.615 2.615 v 8.587 C 24.909 73.079 23.735 74.252 22.293 74.252 z M 13.707 62.435 c -0.339 0 -0.615 0.276 -0.615 0.615 v 8.587 c 0 0.339 0.276 0.615 0.615 0.615 h 8.587 c 0.339 0 0.615 -0.276 0.615 -0.615 V 63.05 c 0 -0.339 -0.276 -0.615 -0.615 -0.615 H 13.707 z" style="stroke: none; stroke-width: 1; stroke-dasharray: none; stroke-linecap: butt; stroke-linejoin: miter; stroke-miterlimit: 10; fill: rgb(0,0,0); fill-rule: nonzero; opacity: 1;" transform=" matrix(1 0 0 1 0 0) " stroke-linecap="round" />
	<path d="M 76.293 74.252 h -8.586 c -1.442 0 -2.616 -1.173 -2.616 -2.615 V 63.05 c 0 -1.442 1.174 -2.615 2.616 -2.615 h 8.586 c 1.442 0 2.616 1.173 2.616 2.615 v 8.587 C 78.909 73.079 77.735 74.252 76.293 74.252 z M 67.707 62.435 c -0.34 0 -0.616 0.276 -0.616 0.615 v 8.587 c 0 0.339 0.276 0.615 0.616 0.615 h 8.586 c 0.34 0 0.616 -0.276 0.616 -0.615 V 63.05 c 0 -0.339 -0.276 -0.615 -0.616 -0.615 H 67.707 z" style="stroke: none; stroke-width: 1; stroke-dasharray: none; stroke-linecap: butt; stroke-linejoin: miter; stroke-miterlimit: 10; fill: rgb(0,0,0); fill-rule: nonzero; opacity: 1;" transform=" matrix(1 0 0 1 0 0) " stroke-linecap="round" />
	<path d="M 89 30.111 H 1 c -0.552 0 -1 -0.448 -1 -1 s 0.448 -1 1 -1 h 88 c 0.553 0 1 0.448 1 1 S 89.553 30.111 89 30.111 z" style="stroke: none; stroke-width: 1; stroke-dasharray: none; stroke-linecap: butt; stroke-linejoin: miter; stroke-miterlimit: 10; fill: rgb(0,0,0); fill-rule: nonzero; opacity: 1;" transform=" matrix(1 0 0 1 0 0) " stroke-linecap="round" />
	<path d="M 44.34 74.252 c -0.264 0 -0.519 -0.104 -0.707 -0.293 l -4.246 -4.246 c -0.391 -0.391 -0.391 -1.023 0 -1.414 s 1.023 -0.391 1.414 0 l 3.4 3.4 l 5.226 -7.51 c 0.314 -0.454 0.939 -0.566 1.393 -0.25 c 0.453 0.315 0.565 0.939 0.25 1.393 l -5.909 8.491 c -0.169 0.243 -0.438 0.398 -0.732 0.425 C 44.399 74.251 44.37 74.252 44.34 74.252 z" style="stroke: none; stroke-width: 1; stroke-dasharray: none; stroke-linecap: butt; stroke-linejoin: miter; stroke-miterlimit: 10; fill: rgb(0,0,0); fill-rule: nonzero; opacity: 1;" transform=" matrix(1 0 0 1 0 0) " stroke-linecap="round" />
	<path d="M 47.045 23.743 h -4.09 c -1.577 0 -2.86 -1.283 -2.86 -2.86 V 9.001 c 0 -1.577 1.283 -2.86 2.86 -2.86 h 4.09 c 1.577 0 2.86 1.283 2.86 2.86 v 11.882 C 49.905 22.46 48.622 23.743 47.045 23.743 z M 42.955 8.141 c -0.475 0 -0.86 0.386 -0.86 0.86 v 11.882 c 0 0.475 0.386 0.86 0.86 0.86 h 4.09 c 0.475 0 0.86 -0.386 0.86 -0.86 V 9.001 c 0 -0.475 -0.386 -0.86 -0.86 -0.86 H 42.955 z" style="stroke: none; stroke-width: 1; stroke-dasharray: none; stroke-linecap: butt; stroke-linejoin: miter; stroke-miterlimit: 10; fill: rgb(0,0,0); fill-rule: nonzero; opacity: 1;" transform=" matrix(1 0 0 1 0 0) " stroke-linecap="round" />
	<path d="M 70.045 23.743 h -4.09 c -1.577 0 -2.86 -1.283 -2.86 -2.86 V 9.001 c 0 -1.577 1.283 -2.86 2.86 -2.86 h 4.09 c 1.577 0 2.86 1.283 2.86 2.86 v 11.882 C 72.905 22.46 71.622 23.743 70.045 23.743 z M 65.955 8.141 c -0.475 0 -0.86 0.386 -0.86 0.86 v 11.882 c 0 0.475 0.386 0.86 0.86 0.86 h 4.09 c 0.475 0 0.86 -0.386 0.86 -0.86 V 9.001 c 0 -0.475 -0.386 -0.86 -0.86 -0.86 H 65.955 z" style="stroke: none; stroke-width: 1; stroke-dasharray: none; stroke-linecap: butt; stroke-linejoin: miter; stroke-miterlimit: 10; fill: rgb(0,0,0); fill-rule: nonzero; opacity: 1;" transform=" matrix(1 0 0 1 0 0) " stroke-linecap="round" />
	<path d="M 24.045 23.743 h -4.09 c -1.577 0 -2.86 -1.283 -2.86 -2.86 V 9.001 c 0 -1.577 1.283 -2.86 2.86 -2.86 h 4.09 c 1.577 0 2.86 1.283 2.86 2.86 v 11.882 C 26.905 22.46 25.622 23.743 24.045 23.743 z M 19.955 8.141 c -0.475 0 -0.86 0.386 -0.86 0.86 v 11.882 c 0 0.475 0.386 0.86 0.86 0.86 h 4.09 c 0.475 0 0.86 -0.386 0.86 -0.86 V 9.001 c 0 -0.475 -0.386 -0.86 -0.86 -0.86 H 19.955 z" style="stroke: none; stroke-width: 1; stroke-dasharray: none; stroke-linecap: butt; stroke-linejoin: miter; stroke-miterlimit: 10; fill: rgb(0,0,0); fill-rule: nonzero; opacity: 1;" transform=" matrix(1 0 0 1 0 0) " stroke-linecap="round" />
</g>
</svg>