<?xml version="1.0" encoding="iso-8859-1"?>
<!-- Generator: Adobe Illustrator 16.0.0, SVG Export Plug-In . SVG Version: 6.00 Build 0)  -->
<!DOCTYPE svg PUBLIC "-//W3C//DTD SVG 1.1//EN" "http://www.w3.org/Graphics/SVG/1.1/DTD/svg11.dtd">
<svg version="1.1" id="Capa_1" xmlns="http://www.w3.org/2000/svg" xmlns:xlink="http://www.w3.org/1999/xlink" x="0px" y="0px"
	 width="123.474px" height="123.475px" viewBox="0 0 123.474 123.475" style="enable-background:new 0 0 123.474 123.475;"
	 xml:space="preserve">
<g>
	<g>
		<circle cx="53.57" cy="12.777" r="12.777"/>
		<path d="M89.86,43.575c-0.545,0-1.111,0.07-2.244,0.209c-2.229,0.274-8.976,1.107-11.664,0.141
			c-0.82-0.532-2.419-3.075-3.479-4.765c-2.651-4.22-5.947-9.464-11.401-11.045c-1.356-0.853-2.854-1.484-4.382-1.85
			c-0.011-0.002-0.021-0.003-0.032-0.006l-3.086,3.239l-3.183-3.204c-1.596,0.391-3.163,1.067-4.563,1.986
			c-0.173,0.081-0.349,0.147-0.515,0.249c-9.888,6.065-19.268,14.183-15.989,40.424c0.313,2.51,2.45,4.346,4.916,4.346
			c0.206,0,0.413-0.014,0.621-0.039c2.719-0.339,4.646-2.818,4.308-5.537c-1.208-9.663-0.454-15.979,1.328-20.365v18.246
			c0,1.766,0.447,3.377,1.216,4.801l0.002,47.207c0,3.238,2.624,5.862,5.862,5.862c3.237,0,5.862-2.625,5.862-5.862l-0.003-40.74
			c0.047,0,0.092,0.006,0.138,0.006c0.233,0,0.465-0.02,0.697-0.029l-0.004,40.764c0,3.238,2.624,5.862,5.862,5.863
			c3.238,0,5.862-2.623,5.862-5.861l0.005-47.5c0-0.254-0.043-0.498-0.075-0.746c0.465-1.156,0.729-2.414,0.729-3.764V48.326
			c1.588,2.159,3.35,3.948,5.703,4.845c2.175,0.828,4.798,1.127,7.63,1.127c2.825,0,5.856-0.298,8.851-0.667
			c0.517-0.064,0.917-0.117,1.166-0.137c2.678-0.073,4.823-2.265,4.823-4.958C94.82,45.796,92.599,43.575,89.86,43.575z
			 M53.598,54.786h-0.059l-3.081-4.217l3.081-20.597h0.059l3.081,20.597L53.598,54.786z"/>
	</g>
</g>
<g>
</g>
<g>
</g>
<g>
</g>
<g>
</g>
<g>
</g>
<g>
</g>
<g>
</g>
<g>
</g>
<g>
</g>
<g>
</g>
<g>
</g>
<g>
</g>
<g>
</g>
<g>
</g>
<g>
</g>
</svg>
