<svg width="2000" height="2000" viewBox="0 0 2000 2000" fill="none" xmlns="http://www.w3.org/2000/svg">
<rect width="2000" height="2000" fill="white"/>
<path d="M1660.71 1319.77C1660.71 1371.22 1476.94 1423.24 1250.26 1423.24C1023.57 1423.24 839.805 1371.22 839.805 1319.77C839.805 1268.32 1023.57 1226.61 1250.26 1226.61C1476.94 1226.61 1660.71 1268.32 1660.71 1319.77Z" fill="#FFB400"/>
<path d="M1250.26 1412.94C1476.94 1412.94 1660.71 1371.22 1660.71 1319.77V1476.7C1660.71 1488.53 1653.64 1499.25 1642.66 1503.66C1394.45 1603.2 1121.52 1595.8 859.118 1503.19C847.487 1499.09 839.805 1488.02 839.805 1475.69V1319.77C839.805 1371.22 1023.57 1412.94 1250.26 1412.94Z" fill="#E36B06"/>
<path d="M912.541 1394.48C904.267 1427.83 903.808 1447.4 912.541 1484.35C917.287 1448.31 914.518 1409.42 912.541 1394.48Z" fill="#FFB400"/>
<path d="M962.638 1412.94C954.365 1446.29 953.905 1465.86 962.638 1502.8C967.385 1466.77 964.616 1427.88 962.638 1412.94Z" fill="#FFB400"/>
<path d="M1007.03 1423.48C998.751 1456.83 998.292 1476.4 1007.03 1513.35C1011.77 1477.32 1009 1438.42 1007.03 1423.48Z" fill="#FFB400"/>
<path d="M1054.48 1439.74C1046.21 1473.09 1045.75 1492.66 1054.48 1529.61C1059.23 1493.58 1056.46 1454.68 1054.48 1439.74Z" fill="#FFB400"/>
<path d="M1126.12 1448.09C1117.84 1481.44 1117.38 1501.01 1126.12 1537.96C1130.86 1501.92 1128.09 1463.03 1126.12 1448.09Z" fill="#FFB400"/>
<path d="M1211.81 1448.09C1203.54 1481.44 1203.08 1501.01 1211.81 1537.96C1216.56 1501.92 1213.79 1463.03 1211.81 1448.09Z" fill="#FFB400"/>
<path d="M1627.3 1378.66C1635.57 1412.01 1636.03 1431.58 1627.3 1468.53C1622.55 1432.49 1625.32 1393.6 1627.3 1378.66Z" fill="#FFB400"/>
<path d="M1563.57 1402.82C1571.85 1436.17 1572.31 1455.75 1563.57 1492.69C1558.83 1456.66 1561.59 1417.77 1563.57 1402.82Z" fill="#FFB400"/>
<path d="M1485.79 1423.48C1494.06 1456.83 1494.52 1476.4 1485.79 1513.35C1481.04 1477.32 1483.81 1438.42 1485.79 1423.48Z" fill="#FFB400"/>
<path d="M1389.55 1439.74C1397.82 1473.09 1398.28 1492.66 1389.55 1529.61C1384.8 1493.58 1387.57 1454.68 1389.55 1439.74Z" fill="#FFB400"/>
<path d="M1293.31 1447.65C1301.58 1481 1302.04 1500.57 1293.31 1537.52C1288.56 1501.49 1291.33 1462.59 1293.31 1447.65Z" fill="#FFB400"/>
<ellipse cx="1250.26" cy="1147.55" rx="410.452" ry="93.1647" fill="#FDB802"/>
<ellipse cx="1250.4" cy="1147.74" rx="339.593" ry="77.3475" fill="#DD6407"/>
<ellipse cx="1250.4" cy="1153.63" rx="330.753" ry="69.9811" fill="#FFC603"/>
<path d="M1352.13 1161.59C1352.26 1157.07 1346.08 1153.22 1338.32 1153.01C1330.57 1152.8 1324.29 1152.63 1324.29 1152.63C1321.17 1130.16 1300.09 1114.76 1265.14 1113.81L1264.57 1113.79C1229.04 1112.83 1212.37 1124.98 1201.09 1149.74L1167.86 1148.84C1169.56 1145.28 1171.93 1141.6 1174.98 1138.03C1179.87 1132.29 1177.1 1125.07 1166.59 1121.22C1156.1 1117.36 1141.16 1118.88 1135.58 1125.34C1130.03 1131.78 1126.14 1138.91 1124.33 1146.87L1115.73 1146.63C1110.99 1146.5 1107.04 1150.06 1106.92 1154.59C1106.8 1159.11 1110.35 1162.88 1114.85 1163C1119.36 1163.13 1123.02 1163.23 1123.02 1163.23C1125.51 1187.42 1148.64 1201.61 1182.44 1202.53L1183.02 1202.55C1218.54 1203.51 1234.66 1191.03 1245.94 1165.95L1280.32 1166.89C1278.37 1172.92 1274.53 1178.78 1268.74 1184.69C1262.57 1190.99 1264.47 1198.96 1274.89 1203.16C1285.3 1207.36 1300.28 1206.19 1306.27 1199.83C1315.07 1190.5 1320.95 1179.84 1323.28 1169L1337.6 1169.39C1345.5 1169.61 1352.01 1166.11 1352.13 1161.59ZM1250.93 1151.26C1255.44 1143.18 1259.81 1140.94 1267.54 1141.15L1268.12 1141.17C1276.43 1141.39 1281.2 1144.83 1282.44 1152.12L1250.93 1151.26ZM1179.47 1174.7L1178.9 1174.69C1171.45 1174.48 1165.8 1171.33 1164.87 1163.58L1195.81 1164.43C1191.28 1172.81 1186.92 1174.9 1179.47 1174.7Z" fill="#DD6407"/>
<path d="M1250.26 1240.72C1476.94 1240.72 1660.71 1199.01 1660.71 1147.55V1303.29C1660.71 1315.71 1652.92 1326.84 1641.16 1330.83C1389.71 1416.19 1119.62 1407.2 860.555 1330.31C848.19 1326.64 839.805 1315.21 839.805 1302.31V1147.55C839.805 1199.01 1023.57 1240.72 1250.26 1240.72Z" fill="#DD6407"/>
<path d="M912.541 1222.26C904.267 1255.61 903.808 1275.18 912.541 1312.13C917.287 1276.09 914.518 1237.2 912.541 1222.26Z" fill="#FFB400"/>
<path d="M962.638 1240.72C954.365 1274.07 953.905 1293.64 962.638 1330.59C967.385 1294.55 964.616 1255.66 962.638 1240.72Z" fill="#FFB400"/>
<path d="M1007.03 1251.26C998.751 1284.61 998.292 1304.18 1007.03 1341.13C1011.77 1305.1 1009 1266.21 1007.03 1251.26Z" fill="#FFB400"/>
<path d="M1054.48 1267.52C1046.21 1300.87 1045.75 1320.44 1054.48 1357.39C1059.23 1321.36 1056.46 1282.46 1054.48 1267.52Z" fill="#FFB400"/>
<path d="M1126.12 1275.87C1117.84 1309.22 1117.38 1328.79 1126.12 1365.74C1130.86 1329.7 1128.09 1290.81 1126.12 1275.87Z" fill="#FFB400"/>
<path d="M1211.81 1275.87C1203.54 1309.22 1203.08 1328.79 1211.81 1365.74C1216.56 1329.7 1213.79 1290.81 1211.81 1275.87Z" fill="#FFB400"/>
<path d="M1627.3 1206.44C1635.57 1239.79 1636.03 1259.36 1627.3 1296.31C1622.55 1260.27 1625.32 1221.38 1627.3 1206.44Z" fill="#FFB400"/>
<path d="M1563.57 1230.61C1571.85 1263.96 1572.31 1283.53 1563.57 1320.47C1558.83 1284.44 1561.59 1245.55 1563.57 1230.61Z" fill="#FFB400"/>
<path d="M1485.79 1251.26C1494.06 1284.61 1494.52 1304.18 1485.79 1341.13C1481.04 1305.1 1483.81 1266.21 1485.79 1251.26Z" fill="#FFB400"/>
<path d="M1389.55 1267.52C1397.82 1300.87 1398.28 1320.44 1389.55 1357.39C1384.8 1321.36 1387.57 1282.46 1389.55 1267.52Z" fill="#FFB400"/>
<path d="M1293.31 1275.43C1301.58 1308.78 1302.04 1328.35 1293.31 1365.3C1288.56 1329.27 1291.33 1290.38 1293.31 1275.43Z" fill="#FFB400"/>
<path d="M1535.34 1018.83H1479.78V1584.15H1535.34C1691.45 1584.15 1818 1457.6 1818 1301.49C1818 1145.38 1691.45 1018.83 1535.34 1018.83Z" fill="#DD6407"/>
<path opacity="0.1" d="M1535.34 1018.85H1479.78V1584.16H1535.34C1691.45 1584.16 1818 1457.61 1818 1301.5C1818 1145.4 1691.45 1018.85 1535.34 1018.85Z" fill="#FDB802"/>
<path d="M1788.45 1301.5C1788.45 1145.4 1661.9 1018.85 1505.8 1018.85C1349.69 1018.85 1223.14 1145.4 1223.14 1301.5C1223.14 1457.61 1349.69 1584.16 1505.8 1584.16C1661.9 1584.16 1788.45 1457.61 1788.45 1301.5Z" fill="#FDB802"/>
<path d="M1374.03 1043.52L1372.91 1041.27C1392.54 1031.48 1413.3 1023.94 1434.59 1018.84L1435.18 1021.29C1414.07 1026.34 1393.5 1033.82 1374.03 1043.52Z" fill="#FDB802"/>
<path d="M1341.39 1062.53L1339.98 1060.44C1345.39 1056.8 1350.98 1053.3 1356.6 1050.03L1357.86 1052.21C1352.29 1055.44 1346.75 1058.91 1341.39 1062.53Z" fill="#FDB802"/>
<path d="M1674.91 1149.82C1634.28 1113.77 1580.82 1091.87 1522.21 1091.87C1395.06 1091.87 1291.97 1194.96 1291.97 1322.11C1291.97 1380.65 1313.82 1434.08 1349.82 1474.71C1302.21 1432.53 1272.21 1370.94 1272.21 1302.33C1272.21 1175.17 1375.27 1072.08 1502.42 1072.08C1571.09 1072.08 1632.72 1102.14 1674.91 1149.82Z" fill="#DD6407"/>
<path opacity="0.1" d="M1625.88 1116.2C1671.21 1146.12 1706.2 1192.09 1721.37 1248.7C1754.28 1371.52 1681.38 1497.77 1558.56 1530.68C1502.02 1545.83 1444.75 1538.55 1396.19 1514.3C1449.25 1549.37 1516.51 1562.41 1582.79 1544.65C1705.61 1511.74 1778.51 1385.51 1745.6 1262.69C1727.83 1196.36 1682.85 1144.6 1625.88 1116.2Z" fill="#DD6407"/>
<path d="M1527.75 1194.15C1519.42 1194.15 1512.65 1200.3 1512.65 1207.9C1512.65 1215.48 1512.65 1221.63 1512.65 1221.63C1471.42 1225.28 1444.13 1246.32 1444.13 1280.55V1281.11C1444.13 1315.9 1467.36 1331.89 1513.52 1342.27V1374.81C1506.88 1373.24 1499.99 1371.02 1493.27 1368.13C1482.44 1363.5 1469.29 1366.4 1462.72 1376.79C1456.14 1387.16 1459.69 1401.74 1471.88 1407.02C1484.01 1412.28 1497.33 1415.9 1512.08 1417.46V1425.88C1512.08 1430.52 1518.83 1434.29 1527.17 1434.29C1535.51 1434.29 1542.27 1430.71 1542.27 1426.31C1542.27 1421.89 1542.27 1418.31 1542.27 1418.31C1586.7 1415.22 1611.67 1392.22 1611.67 1359.11V1358.55C1611.67 1323.76 1587.86 1308.32 1541.11 1297.95V1264.28C1552.33 1266.03 1563.31 1269.63 1574.48 1275.14C1586.38 1281.01 1600.97 1278.93 1608.18 1268.63C1615.4 1258.33 1612.49 1243.7 1600.49 1238.01C1582.85 1229.64 1562.93 1224.17 1542.86 1222.19V1208.16C1542.85 1200.43 1536.09 1194.15 1527.75 1194.15ZM1513.82 1293.46C1498.71 1289.25 1494.36 1285.04 1494.36 1277.47V1276.9C1494.36 1268.77 1500.46 1264 1513.82 1262.59V1293.46ZM1560.57 1362.76V1363.32C1560.57 1370.61 1555.05 1376.23 1540.82 1377.35V1347.04C1556.5 1351.25 1560.57 1355.47 1560.57 1362.76Z" fill="#DD6407"/>
<path d="M679.998 1485.5L685.53 1450.81H806.141L807.998 1482.5L679.998 1485.5Z" fill="#FF9494"/>
<path d="M807.999 1482.5L837.999 1586.5V1624.5H529.5V1587.5C537.473 1562.82 572.193 1511.26 623.865 1511.26C681.268 1511.26 671.627 1495.85 679.999 1485.5L807.999 1482.5Z" fill="#6373FF"/>
<path d="M561.68 1586.32L838 1586.5V1624.5H529.5V1587.5L561.68 1586.32Z" fill="#2C2B38"/>
<path d="M384.5 1363L407.471 1336.54L509.854 1400.3L494.5 1428.5L384.5 1363Z" fill="#FF9494"/>
<path d="M494.5 1428.5L465.003 1532L445.003 1564.5L183.002 1401.5L203 1369.5C222.814 1352.77 279.311 1327.94 323.173 1355.25C371.9 1385.6 371.923 1367.36 384.5 1363L471.993 1414.9L494.5 1428.5Z" fill="#6373FF"/>
<path d="M230.709 1386.09L465.003 1532L445.003 1564.5L183.002 1401.5L203 1369.5L230.709 1386.09Z" fill="#2C2B38"/>
<path d="M516.024 1416.43L648 1162.5C648 1162.5 674.577 1001.27 685 972.5C695.423 943.727 844.803 972.626 1024.59 964.485L1013.93 850.135L598.417 858.15L382.618 1335.93L516.024 1416.43Z" fill="#2C2B38"/>
<path d="M654.735 1467.69L818.27 1473.38L807.956 1169.15C889.458 1169.15 1083.39 1221.39 1141.66 1189.77C1188.66 1164.27 1200.31 1115.88 1199.78 1071.97C1199.47 1061.73 1199.31 1051.1 1198 1040.5C1193.37 1003.09 1183.46 966.062 1182.48 947.849L656.208 943L640.002 1186.83L654.735 1467.69Z" fill="#2C2B38"/>
<path d="M972.295 450.694C970.422 451.623 957.108 447.914 945.895 446.006C949.635 476.672 950.569 498.643 947.764 503.973C938.415 521.737 930.692 573.894 967.578 572.537C978.574 572.537 990.151 571.036 999.941 568.596L1012.28 605.884C1025 605.18 1079.51 601.987 1103.59 578.383C1086.79 569.911 1080.23 554.74 1080.23 540.743C1080.23 540.743 1090.83 460.045 1069.32 460.907C1047.81 461.768 1063.09 426.939 1059.36 425.99C1055.62 425.041 1012.39 483.556 1008.68 473.259C1004.98 462.963 990.053 452.625 991.903 458.242C993.754 463.86 984.655 468.9 982.781 469.829C980.908 470.757 972.237 467.524 967.578 462.833C962.92 458.142 974.168 449.766 972.295 450.694Z" fill="#FF9494"/>
<path d="M943.547 437.698C944.223 442.841 950.267 483.537 1003.17 470.846C1000.21 499.03 1029.32 492.465 1038.98 492.864C1037.7 482.803 1053.23 456.339 1067.11 467.632C1081 478.925 1067.17 496.566 1060.89 506.644C1076.03 513.657 1081.38 548.338 1080.97 552.533C1080.97 552.533 1113.31 531.472 1109.51 522.674C1105.72 513.876 1104.92 465.037 1103.61 443.654C1102.31 422.27 1071.01 386.97 1047.06 380.73C1023.1 374.49 1014.42 395.451 982.358 395.518C959.17 395.566 960.327 418.763 961.185 427.148C956.148 429.255 941.317 420.734 943.547 437.698Z" fill="#2C2B38"/>
<path d="M1017.41 941.479L1198 1040.5C1198 1040.5 1203.01 851.58 1186.22 732.098C1162.29 561.774 1072.56 548.849 1017.41 592.948C974.508 627.257 903.393 836.425 889.442 910.538L1012.62 953.818L1017.41 941.479Z" fill="#6373FF"/>
<path d="M651.337 892.605C669.339 928.793 735.54 928.08 763.917 923.044C800.1 916.622 788.301 838.324 729.244 842.521C670.186 846.719 678.052 897.438 665.851 873.008C653.65 848.578 630.533 850.784 651.337 892.605Z" fill="#FF9494"/>
<path d="M592.527 743.161L667.932 890.413C668.638 891.792 670.291 892.388 671.715 891.778L697.214 880.85C698.786 880.176 699.456 878.309 698.67 876.789L622.574 729.574C621.86 728.193 620.195 727.604 618.772 728.229L593.965 739.12C592.412 739.801 591.754 741.651 592.527 743.161Z" fill="#444256"/>
<path d="M742.056 944.938C742.056 944.938 757.406 866.096 760.528 831.719L958.685 857.501C966.7 811.274 1008.11 591.888 1095.57 602.978C1209.38 617.41 1146.7 788.365 1134.55 813.952C1122.41 839.539 1087.55 997.291 1059.6 1007.04C1037.25 1014.84 742.056 944.938 742.056 944.938Z" fill="#6373FF"/>
<ellipse cx="1487.89" cy="867.716" rx="151.136" ry="34.3049" transform="rotate(47.1778 1487.89 867.716)" fill="#FDB802"/>
<ellipse cx="1487.87" cy="867.801" rx="125.044" ry="28.4808" transform="rotate(47.1778 1487.87 867.801)" fill="#DD6407"/>
<ellipse cx="1486.28" cy="869.279" rx="121.789" ry="25.7683" transform="rotate(47.1778 1486.28 869.279)" fill="#FFC603"/>
<path d="M1519.42 901.151C1520.54 899.788 1519.85 897.367 1517.88 895.743C1515.9 894.121 1514.3 892.806 1514.3 892.806C1518.89 885.283 1517.09 876.321 1508.18 869.004L1508.03 868.884C1498.98 861.447 1491.7 861.828 1482.8 867.16L1474.33 860.203C1475.63 859.452 1477.14 858.802 1478.79 858.318C1481.45 857.539 1482.46 854.766 1480.64 851.472C1478.83 848.178 1474.56 845.643 1471.55 846.506C1468.55 847.367 1465.82 848.771 1463.43 850.85L1461.24 849.05C1460.03 848.058 1458.14 848.357 1457.02 849.72C1455.9 851.084 1455.92 852.956 1457.07 853.897C1458.22 854.842 1459.15 855.607 1459.15 855.607C1453.98 863.534 1456.61 872.535 1465.23 879.612L1465.37 879.733C1474.42 887.169 1481.64 886.575 1490.62 881.147L1499.38 888.344C1497.42 889.805 1495.01 890.831 1492.07 891.481C1488.94 892.173 1487.52 895.002 1489.24 898.384C1490.95 901.767 1495.14 904.418 1498.24 903.671C1502.78 902.576 1506.88 900.486 1510.1 897.628L1513.75 900.626C1515.76 902.279 1518.3 902.515 1519.42 901.151ZM1495.46 877.643C1498.58 876.071 1500.26 876.261 1502.23 877.879L1502.38 878C1504.5 879.739 1504.92 881.754 1503.49 884.241L1495.46 877.643ZM1471.14 870.474L1471 870.355C1469.1 868.796 1468.38 866.693 1470 864.127L1477.89 870.605C1474.68 872.269 1473.04 872.033 1471.14 870.474Z" fill="#DD6407"/>
<path d="M1462.72 891.036C1519.46 952.259 1576.72 991.45 1590.62 978.572L1558.15 1008.66C1549.04 1017.1 1535.55 1019.02 1524.82 1012.76C1448.32 968.128 1389.04 900.349 1347.2 820.421C1341.22 808.994 1343.95 795.054 1353.41 786.287L1385.15 756.865C1371.26 769.743 1405.99 829.814 1462.72 891.036Z" fill="#DD6407"/>
<path d="M1383.18 795.203C1372.1 801.316 1366.7 806.09 1358.91 817.696C1369.83 809.959 1379.64 799.477 1383.18 795.203Z" fill="#FFB400"/>
<path d="M1390.74 813.357C1379.66 819.47 1374.26 824.244 1366.46 835.85C1377.38 828.113 1387.19 817.631 1390.74 813.357Z" fill="#FFB400"/>
<path d="M1399 827.984C1387.92 834.097 1382.52 838.871 1374.73 850.477C1385.65 842.74 1395.46 832.258 1399 827.984Z" fill="#FFB400"/>
<path d="M1406.49 844.869C1395.41 850.982 1390.01 855.756 1382.21 867.362C1393.13 859.625 1402.94 849.143 1406.49 844.869Z" fill="#FFB400"/>
<path d="M1422.16 866.305C1411.08 872.417 1405.68 877.192 1397.89 888.798C1408.81 881.06 1418.62 870.579 1422.16 866.305Z" fill="#FFB400"/>
<path d="M1443.61 889.447C1432.53 895.56 1427.13 900.334 1419.34 911.94C1430.26 904.203 1440.07 893.721 1443.61 889.447Z" fill="#FFB400"/>
<path d="M1566.35 984.287C1559.41 994.869 1554.24 999.891 1542.08 1006.78C1550.62 996.479 1561.82 987.493 1566.35 984.287Z" fill="#FFB400"/>
<path d="M1543.88 973.125C1536.94 983.707 1531.77 988.729 1519.6 995.618C1528.15 985.317 1539.35 976.331 1543.88 973.125Z" fill="#FFB400"/>
<path d="M1518.83 957.283C1511.89 967.865 1506.72 972.887 1494.56 979.776C1503.1 969.475 1514.3 960.489 1518.83 957.283Z" fill="#FFB400"/>
<path d="M1490.35 935.363C1483.41 945.945 1478.24 950.967 1466.08 957.856C1474.62 947.555 1485.82 938.569 1490.35 935.363Z" fill="#FFB400"/>
<path d="M1464.12 911.353C1457.19 921.935 1452.02 926.957 1439.85 933.846C1448.4 923.545 1459.59 914.559 1464.12 911.353Z" fill="#FFB400"/>
<ellipse cx="1516.32" cy="561.398" rx="139.824" ry="31.7373" transform="rotate(-30 1516.32 561.398)" fill="#FDB802"/>
<ellipse cx="1516.39" cy="561.428" rx="115.685" ry="26.3491" transform="rotate(-30 1516.39 561.428)" fill="#DD6407"/>
<ellipse cx="1517.39" cy="563.162" rx="112.674" ry="23.8397" transform="rotate(-30 1517.39 563.162)" fill="#FFC603"/>
<path d="M1556.86 533.745C1555.76 532.362 1553.25 532.526 1551.24 534.116C1549.24 535.703 1547.62 536.989 1547.62 536.989C1541.23 530.914 1532.09 530.788 1523.06 537.948L1522.91 538.065C1513.73 545.342 1512.57 552.54 1515.9 562.368L1507.31 569.176C1506.85 567.745 1506.53 566.138 1506.41 564.419C1506.21 561.654 1503.71 560.079 1500.11 561.161C1496.51 562.24 1493.13 565.878 1493.33 569.005C1493.54 572.118 1494.34 575.084 1495.87 577.857L1493.64 579.618C1492.42 580.589 1492.31 582.499 1493.41 583.882C1494.51 585.265 1496.34 585.637 1497.5 584.716C1498.67 583.792 1499.61 583.044 1499.61 583.044C1506.27 589.767 1515.62 589.097 1524.36 582.172L1524.51 582.054C1533.69 574.778 1534.63 567.599 1531.22 557.675L1540.11 550.632C1541.12 552.858 1541.61 555.432 1541.63 558.439C1541.65 561.641 1544.11 563.626 1547.78 562.668C1551.45 561.711 1554.92 558.167 1554.85 554.986C1554.74 550.31 1553.56 545.861 1551.44 542.116L1555.14 539.182C1557.19 537.563 1557.95 535.128 1556.86 533.745ZM1528.82 552.208C1527.94 548.822 1528.48 547.219 1530.48 545.636L1530.63 545.517C1532.77 543.815 1534.83 543.83 1536.96 545.752L1528.82 552.208ZM1516.68 574.459L1516.53 574.576C1514.61 576.102 1512.4 576.36 1510.23 574.235L1518.23 567.896C1519.18 571.377 1518.6 572.934 1516.68 574.459Z" fill="#DD6407"/>
<path d="M1532.19 588.884C1599.06 550.273 1646.17 506.666 1637.41 491.487L1657.11 525.613C1663.32 536.37 1662.2 549.947 1653.68 558.985C1598.21 617.816 1525.9 656.883 1446.34 678.179C1433.88 681.513 1420.89 675.755 1414.44 664.585L1395.23 631.311C1403.99 646.49 1465.31 627.495 1532.19 588.884Z" fill="#DD6407"/>
<path d="M1429.41 640.956C1432.65 652.205 1435.85 658.057 1444.72 667.469C1439.98 656.03 1432.54 645.028 1429.41 640.956Z" fill="#FFB400"/>
<path d="M1447.33 637.869C1450.57 649.117 1453.77 654.969 1462.64 664.382C1457.9 652.942 1450.46 641.94 1447.33 637.869Z" fill="#FFB400"/>
<path d="M1462.23 633.423C1465.47 644.672 1468.66 650.523 1477.53 659.936C1472.8 648.497 1465.35 637.494 1462.23 633.423Z" fill="#FFB400"/>
<path d="M1479 630.136C1482.23 641.385 1485.43 647.236 1494.3 656.649C1489.56 645.21 1482.12 634.207 1479 630.136Z" fill="#FFB400"/>
<path d="M1501.55 620.394C1504.79 631.642 1507.99 637.494 1516.86 646.907C1512.12 635.467 1504.68 624.465 1501.55 620.394Z" fill="#FFB400"/>
<path d="M1526.83 605.798C1530.07 617.047 1533.27 622.898 1542.14 632.311C1537.4 620.872 1529.96 609.869 1526.83 605.798Z" fill="#FFB400"/>
<path d="M1637.58 514.551C1645.7 522.981 1649.17 528.677 1652.89 541.064C1645.35 531.242 1639.54 519.296 1637.58 514.551Z" fill="#FFB400"/>
<path d="M1622.9 532.536C1631.02 540.966 1634.49 546.661 1638.2 559.049C1630.67 549.226 1624.86 537.281 1622.9 532.536Z" fill="#FFB400"/>
<path d="M1603.47 551.876C1611.59 560.305 1615.06 566.001 1618.78 578.389C1611.24 568.566 1605.43 556.62 1603.47 551.876Z" fill="#FFB400"/>
<path d="M1577.85 573.065C1585.97 581.495 1589.44 587.19 1593.15 599.578C1585.62 589.755 1579.81 577.81 1577.85 573.065Z" fill="#FFB400"/>
<path d="M1550.8 591.795C1558.92 600.225 1562.39 605.921 1566.11 618.308C1558.57 608.486 1552.76 596.54 1550.8 591.795Z" fill="#FFB400"/>
<path d="M1657.76 566.527V631.352" stroke="#DD6407" stroke-width="2.94657" stroke-linecap="round"/>
<path d="M1318.91 703.543V768.368" stroke="#DD6407" stroke-width="2.94657" stroke-linecap="round"/>
<path d="M1609.14 943.689V993.781" stroke="#DD6407" stroke-width="2.94657" stroke-linecap="round"/>
<path d="M1525.17 463.396L1525.17 503.175" stroke="#DD6407" stroke-width="2.94657" stroke-linecap="round"/>
<path d="M1666.6 621.039L1666.6 660.818" stroke="#DD6407" stroke-width="2.94657" stroke-linecap="round"/>
<path d="M1327.75 758.055L1327.75 797.833" stroke="#DD6407" stroke-width="2.94657" stroke-linecap="round"/>
<path d="M1615.04 984.941L1615.04 1015.88" stroke="#DD6407" stroke-width="2.94657" stroke-linecap="round"/>
<path d="M1507.49 375V473.71" stroke="#DD6407" stroke-width="2.94657" stroke-linecap="round"/>
</svg>
