 <!DOCTYPE svg PUBLIC "-//W3C//DTD SVG 1.1//EN" "http://www.w3.org/Graphics/SVG/1.1/DTD/svg11.dtd">
<svg id="a76e47ab-5942-4966-8fe7-718de983d994" data-name="Layer 1" xmlns="http://www.w3.org/2000/svg" width="865.76" height="682.89" viewBox="0 0 865.76 682.89">
<defs>
<style xmlns="http://www.w3.org/1999/xhtml">*, ::after, ::before { box-sizing: border-box; }
img, svg { vertical-align: middle; }
</style>
<style xmlns="http://www.w3.org/1999/xhtml">*, body, html { -webkit-font-smoothing: antialiased; }
img, svg { max-width: 100%; }
</style>
</defs>
<rect x="316.61" y="140.88" width="228.91" height="402.45" rx="29.35" fill="#2f2e41" data-secondary="true"/>
<rect x="316.61" y="140.88" width="228.91" height="402.45" rx="29.35" opacity="0.3"/>
<rect x="330.66" y="163.19" width="202.46" height="358.65" rx="7.34" fill="#14b3c8" data-primary="true"/>
<rect x="330.66" y="163.19" width="202.46" height="358.65" rx="7.34" fill="#fff" opacity="0.7"/>
<path d="M468,240.53H397.15c.74,14.84-14.1,14.47-14.1,14.47v46.76C384.9,348.89,431.89,363,431.89,363c47.74-13,51.73-61.6,51.73-61.6V255C469.14,254.26,468,240.53,468,240.53Zm4.31,60.94s-3.1,37.71-40.12,47.79c0,0-36.46-10.94-37.9-47.5V265.48s11.52.29,10.94-11.22h55s.86,10.65,12.09,11.22Z" fill="#14b3c8" data-primary="true"/>
<circle cx="433.33" cy="297.4" r="22.73" fill="#fff"/>
<path d="M431.07,304.56a1,1,0,0,1-.65-.25l-6.82-6.21a1,1,0,1,1,1.28-1.41l6.16,5.6,12.57-12.35a1,1,0,0,1,1.35,0,1,1,0,0,1,0,1.36l-13.21,13A1,1,0,0,1,431.07,304.56Z" fill="#14b3c8" data-primary="true"/>
<rect x="368.15" y="381.47" width="126.55" height="23.49" rx="11.15" fill="#fff"/>
<circle cx="383.64" cy="393.22" r="4.81" fill="#d1d3d4"/>
<circle cx="400.26" cy="393.22" r="4.81" fill="#d1d3d4"/>
<circle cx="416.26" cy="393.22" r="4.81" fill="#d1d3d4"/>
<circle cx="431.89" cy="393.22" r="4.81" fill="#d1d3d4"/>
<circle cx="448.51" cy="393.22" r="4.81" fill="#d1d3d4"/>
<circle cx="464.51" cy="393.22" r="4.81" fill="#d1d3d4"/>
<circle cx="480.77" cy="393.22" r="4.81" fill="#d1d3d4"/>
<path d="M592.36,466v-44.9a46.2,46.2,0,0,0-46.2-46.2h0a46.19,46.19,0,0,0-46.2,46.2V466h12.92l.86-46.16a32.85,32.85,0,0,1,32.84-32.24h0a32.85,32.85,0,0,1,32.85,32.85V466Z" fill="#2f2e41" data-secondary="true"/>
<ellipse cx="618.57" cy="201.96" rx="82.68" ry="56.63" fill="#fff"/>
<circle cx="617.87" cy="202.37" r="52.11" fill="#14b3c8" data-primary="true"/>
<path d="M606,151.62l10.1,52.28L576.8,234.45s-20.32-22.88-5.93-54.62C570.87,179.83,580.63,157.24,606,151.62Z" fill="#fff" opacity="0.7"/>
<path d="M616.09,203.9l7.8-53.29s14,.26,28.74,12.94Z" fill="#fff" opacity="0.5"/>
<path d="M668.88,191.66,616.09,203.9l36.54-40.35A51.25,51.25,0,0,1,668.88,191.66Z" fill="#fff" opacity="0.7"/>
<path d="M647.73,245.09,616.09,203.9l52.79-12.24S677.23,224.05,647.73,245.09Z" fill="#fff" opacity="0.3"/>
<ellipse cx="331.75" cy="142.74" rx="54.43" ry="38.37" fill="#fff"/>
<ellipse cx="331.3" cy="143.02" rx="34.3" ry="35.31" fill="#14b3c8" data-primary="true"/>
<path d="M323.47,108.63l6.65,35.42-25.86,20.71s-13.38-15.51-3.9-37C300.36,127.74,306.78,112.43,323.47,108.63Z" fill="#fff" opacity="0.7"/>
<path d="M330.12,144.05l5.13-36.11s9.2.18,18.92,8.77Z" fill="#fff" opacity="0.5"/>
<path d="M364.87,135.76l-34.75,8.29,24.05-27.34A34.78,34.78,0,0,1,364.87,135.76Z" fill="#fff" opacity="0.7"/>
<path d="M351,172l-20.83-27.92,34.75-8.29S370.37,157.71,351,172Z" fill="#fff" opacity="0.3"/>
<ellipse cx="340.56" cy="42.12" rx="31.48" ry="22.19" fill="#fff"/>
<ellipse cx="340.3" cy="42.29" rx="19.84" ry="20.42" fill="#14b3c8" data-primary="true"/>
<path d="M335.77,22.4l3.85,20.48-15,12a20.76,20.76,0,0,1-2.25-21.41S326.12,24.6,335.77,22.4Z" fill="#fff" opacity="0.7"/>
<path d="M339.62,42.88l3-20.88s5.32.1,10.94,5.07Z" fill="#fff" opacity="0.5"/>
<path d="M359.72,38.09l-20.1,4.79,13.91-15.81A20.19,20.19,0,0,1,359.72,38.09Z" fill="#fff" opacity="0.7"/>
<path d="M351.66,59l-12-16.15,20.1-4.79S362.9,50.78,351.66,59Z" fill="#fff" opacity="0.3"/>
<ellipse cx="465.41" cy="86.59" rx="47.4" ry="33.42" fill="#fff"/>
<ellipse cx="465.01" cy="86.83" rx="29.87" ry="30.75" fill="#14b3c8" data-primary="true"/>
<path d="M458.2,56.88,464,87.73l-22.52,18s-11.65-13.5-3.4-32.23C438.07,73.53,443.66,60.2,458.2,56.88Z" fill="#fff" opacity="0.7"/>
<path d="M464,87.73l4.47-31.45s8,.16,16.47,7.64Z" fill="#fff" opacity="0.5"/>
<path d="M494.25,80.51,464,87.73l20.94-23.81A30.37,30.37,0,0,1,494.25,80.51Z" fill="#fff" opacity="0.7"/>
<path d="M482.12,112,464,87.73l30.26-7.22S499,99.62,482.12,112Z" fill="#fff" opacity="0.3"/>
<ellipse cx="581.18" cy="330.17" rx="47.4" ry="33.42" fill="#fff"/>
<ellipse cx="580.78" cy="330.41" rx="29.87" ry="30.75" fill="#14b3c8" data-primary="true"/>
<path d="M574,300.46l5.8,30.85-22.53,18s-11.65-13.5-3.39-32.23C553.84,317.11,559.43,303.78,574,300.46Z" fill="#fff" opacity="0.7"/>
<path d="M579.76,331.31l4.46-31.45s8,.16,16.48,7.64Z" fill="#fff" opacity="0.5"/>
<path d="M610,324.09l-30.26,7.22L600.7,307.5A30.37,30.37,0,0,1,610,324.09Z" fill="#fff" opacity="0.7"/>
<path d="M597.89,355.62l-18.13-24.31L610,324.09S614.8,343.2,597.89,355.62Z" fill="#fff" opacity="0.3"/>
<path d="M585.88,51.88s12.59-.57,13.17-13.45H630S629.09,49,642.83,51.88c0,0,6,45.21-28.47,55.8C614.36,107.68,579.59,98.52,585.88,51.88Z" fill="#2f2e41" data-secondary="true"/>
<circle cx="605.77" cy="83.5" r="6.15" fill="#fff"/>
<circle cx="624.03" cy="83.5" r="6.15" fill="#fff"/>
<path d="M617.93,84.33a4.09,4.09,0,0,0-6.07,0l-.29-1.15s2.8-3,6.6-.06Z" fill="#fff"/>
<polygon points="632.24 73.06 594.47 73.06 600.21 69.05 626.5 69.05 632.24 73.06" fill="#fff"/>
<path d="M599.62,66.35h28.8s-1-10.47-7-10.88a7.27,7.27,0,0,0-6.54,3.08s-4.54-4-7.41-3.12C607.49,55.43,601,56.29,599.62,66.35Z" fill="#fff"/>
<path d="M163.11,180.79s12.59-.57,13.16-13.45h30.91s-.86,10.59,12.88,13.45c0,0,6,45.21-28.48,55.8C191.58,236.59,156.82,227.43,163.11,180.79Z" fill="#2f2e41" data-secondary="true"/>
<circle cx="183" cy="212.41" r="6.15" fill="#fff"/>
<circle cx="201.25" cy="212.41" r="6.15" fill="#fff"/>
<path d="M194.81,212.79c-3.11-2.42-5.22-.16-5.3-.06l-.71-.64s2.79-3,6.6-.06Z" fill="#fff"/>
<polygon points="209.47 201.96 171.7 201.96 177.44 197.96 203.72 197.96 209.47 201.96" fill="#fff"/>
<path d="M176.85,195.25h28.8s-1-10.46-7-10.87a7.24,7.24,0,0,0-6.54,3.08s-4.54-4-7.41-3.12C184.72,184.34,178.21,185.2,176.85,195.25Z" fill="#fff"/>
<rect x="142.11" y="463.33" width="139.51" height="13.48" fill="#d1d3d4"/>
<rect x="155.19" y="475.53" width="10.8" height="189.8" transform="translate(30.89 -7.81) rotate(3.08)" fill="#d1d3d4"/>
<polygon points="286.92 664.41 276.18 665.48 257.28 475.53 268.14 475.55 286.92 664.41" fill="#d1d3d4"/>
<path d="M288.51,584.52l-57.87,1.14L247.8,540.6,279.36,550c-3.66,6.86-5.22,19.93-1.76,21l.85.24C289.66,574.46,288.51,584.52,288.51,584.52Z" fill="#14b3c8" data-primary="true"/>
<path d="M288.51,584.52l-57.87,1.14L247.8,540.6,279.36,550c-3.66,6.86-5.22,19.93-1.76,21l.85.24C289.66,574.46,288.51,584.52,288.51,584.52Z" fill="#14b3c8" data-primary="true"/>
<path d="M288.51,584.52l-57.87,1.14L247.8,540.6,279.36,550c-3.66,6.86-5.22,19.93-1.76,21l.85.24C289.66,574.46,288.51,584.52,288.51,584.52Z" fill="#fff" opacity="0.2"/>
<path d="M288.51,584.52l-25.13.51c1.51-5.13,1.72-8.49,14.22-14l.85.24C289.66,574.46,288.51,584.52,288.51,584.52Z" opacity="0.2"/>
<path d="M249.85,585.67H186.27l6.91-37.38,29.12,3.21c-1,16.4,13.19,19.55,16.64,20.65.54.17.85.25.85.25C251,575.6,249.85,585.67,249.85,585.67Z" fill="#14b3c8" data-primary="true"/>
<path d="M249.85,585.67H186.27l6.91-37.38,29.12,3.21c-1,16.4,13.19,19.55,16.64,20.65.54.17.85.25.85.25C251,575.6,249.85,585.67,249.85,585.67Z" fill="#fff" opacity="0.2"/>
<path d="M249.85,585.67h-25a31.76,31.76,0,0,1,14.05-13.52c.54.17.85.25.85.25C251,575.6,249.85,585.67,249.85,585.67Z" opacity="0.2"/>
<path d="M211.2,553c.21,1.23.46,2.46.76,3.68s.6,2.42,1,3.61a40.75,40.75,0,0,0,2.75,6.94,23,23,0,0,0,4.26,6.06A14,14,0,0,0,226.3,577a13,13,0,0,1-3.57-1.21,14.57,14.57,0,0,1-3.08-2.21,17.81,17.81,0,0,1-2.48-2.87,26.27,26.27,0,0,1-2-3.25,38.06,38.06,0,0,1-2.66-7.06A41.6,41.6,0,0,1,211.2,553Z" opacity="0.2"/>
<path d="M267.36,546.91c-.51,1.1-1,2.21-1.5,3.33s-1,2.23-1.41,3.36a69.72,69.72,0,0,0-2.41,6.86,26.19,26.19,0,0,0-1.23,7.1,7.49,7.49,0,0,0,.68,3.47,2.93,2.93,0,0,0,.21.39l.27.36.13.17.16.16.33.3c.23.19.51.31.76.48s.57.22.85.33a4.24,4.24,0,0,1-2.94-2.07,7.85,7.85,0,0,1-.87-3.58,25.48,25.48,0,0,1,1.14-7.26,61.43,61.43,0,0,1,2.54-6.87A65.37,65.37,0,0,1,267.36,546.91Z" opacity="0.2"/>
<path d="M282.75,551.69l-45.52-13s42.56-77.15,48.48-84.24c0,0-10.94,3.54-16.26,5.91L238.83,404l2.83-3S342.46,390.29,349,424.58c0,0,2.36,13.3-18.92,50.84C330.05,475.42,299,532.48,282.75,551.69Z" fill="#2f2e41" data-secondary="true"/>
<path d="M282.75,551.69l-45.52-13s42.56-77.15,48.48-84.24c0,0-10.94,3.54-16.26,5.91L238.83,404l2.83-3S342.46,390.29,349,424.58c0,0,2.36,13.3-18.92,50.84C330.05,475.42,299,532.48,282.75,551.69Z" opacity="0.2"/>
<path d="M261.37,377.31l3.54,23.57s-1.48,7.95,9.13,11.78l15.32,4.72,21.21-11.2-18.85-13.25.88-20H261.41Z" fill="#f7a48b"/>
<path d="M148.09,419c3.63-13.64,18.79-67.76,37.14-92.54,0,0,12.5-25.49,41.69-26.66,0,0,11.44-.81,16-.11l25.33,10.91L278.84,312a4,4,0,0,1,1.87,1.86s11.21.47,13.7,25.54c0,0,1.87,22.11.31,33.78l-29.89-.31s-19.69,24.29-26,31.06l-88.36,17.57A2,2,0,0,1,148.09,419Z" fill="#14b3c8" data-primary="true"/>
<path d="M242.41,300.34l9.81-13.53,5.51-6.09,9.08,6.45,1.44,23.42-1.8,2s8,6.84,5,13a4.45,4.45,0,0,1-3.05,2.37c-3.95.87-14.29,1.36-30.07-10.59,0,0-11.36-9.65-3.89-14.95A9.76,9.76,0,0,1,242.41,300.34Z" fill="#f9b499"/>
<path d="M151.39,421.36s-11.1,26.37,3.72,37.89A19.07,19.07,0,0,0,167,463.13l34.49-.25,11.84,2s-21.65,72.4-24.92,85.24l44.38,3s27.79-49.75,37.13-82.91c0,0,10.51-39,2.57-46.94L238.83,404Z" fill="#2f2e41" data-secondary="true"/>
<path d="M185.23,326.45l9,39.67,37.6.23s9.81-61-19.15-63.52C212.67,302.83,197.26,305.69,185.23,326.45Z" fill="#14b3c8" data-primary="true"/>
<path d="M185.23,326.45l9,39.67,37.6.23s9.81-61-19.15-63.52C212.67,302.83,197.26,305.69,185.23,326.45Z" opacity="0.2"/>
<path d="M264.83,372.89l4.59-5.9c.39-.48.76-1,1.11-1.5l1.08-1.52,2.15-3.05c.38-.5.7-1,1-1.56l1-1.57,2-3.16,1.8-3.26.89-1.64c.3-.54.54-1.12.81-1.68l1.6-3.36,1.36-3.47.34-.86.27-.89.55-1.78a34.63,34.63,0,0,0,.94-3.6,38,38,0,0,0,1-7.37l0-1.86c0-.62-.1-1.24-.14-1.86a16.32,16.32,0,0,0-.83-3.63,14.73,14.73,0,0,1,1,3.61c.06.63.16,1.24.21,1.87l.07,1.87a38,38,0,0,1-.81,7.45l-.39,1.84a7.13,7.13,0,0,1-.23.91l-.27.9-.55,1.79-.27.9-.34.88-1.34,3.5-1.59,3.4c-.28.56-.52,1.14-.82,1.68l-.92,1.64-1.82,3.27-2,3.15-1,1.58c-.34.52-.68,1.05-1.06,1.54l-2.22,3-1.11,1.5c-.37.51-.74,1-1.14,1.48Z" opacity="0.2"/>
<g opacity="0.2">
<path d="M265.68,332.26c-11.08,0-27.28-9.18-28.12-9.66a.54.54,0,1,1,.53-.93c.25.14,24.53,13.91,33.48,8.1,2.56-1.67,3.62-4.89,3.15-9.59a.54.54,0,0,1,1.07-.11c.51,5.13-.71,8.69-3.64,10.6A11.8,11.8,0,0,1,265.68,332.26Z"/>
</g>
<path d="M166,418.84c1.4-6.23,3-12.41,4.63-18.57S174.06,388,176,381.88s3.91-12.15,6.19-18.12a148.33,148.33,0,0,1,7.71-17.51l-2,4.33c-.65,1.46-1.24,2.94-1.87,4.4l-.46,1.1-.43,1.12-.87,2.23-.86,2.22-.81,2.25c-.53,1.51-1.1,3-1.6,4.51l-1.55,4.52c-1,3-2,6.06-2.91,9.11s-1.88,6.09-2.8,9.15L171,400.38c-.88,3.06-1.73,6.14-2.56,9.22S166.8,415.75,166,418.84Z" opacity="0.2"/>
<path d="M193.12,361.32c3.26-.36,6.52-.66,9.78-1s6.53-.54,9.79-.81,6.53-.49,9.8-.69l4.9-.31c1.64-.08,3.27-.18,4.91-.24-1.63.18-3.26.33-4.89.5l-4.89.46c-3.26.29-6.53.54-9.79.81s-6.53.48-9.8.69S196.39,361.18,193.12,361.32Z" fill="#14b3c8" data-primary="true"/>
<path d="M155.19,449.23a13.61,13.61,0,0,0,3.7,2.82l1,.56,1.07.47a16.88,16.88,0,0,0,2.17.86l2.22.73,2.27.54,1.14.26c.38.09.76.13,1.15.19l2.31.35a94.38,94.38,0,0,0,18.64.16l4.64-.54c1.54-.19,3.1-.33,4.63-.63l4.6-.8,2.3-.4c.77-.15,1.52-.33,2.29-.5l4.56-1c1.52-.34,3-.66,4.54-1.09l9-2.44.53-.14-.25.48c-1.91,3.71-3.7,7.5-5.43,11.3l-2.57,5.72-2.47,5.76c-3.23,7.71-6.18,15.55-8.87,23.46l-1,3c-.34,1-.67,2-1,3l-1.86,6c-.61,2-1.14,4-1.71,6l-.85,3c-.28,1-.5,2-.76,3l-1.52,6.09-1.32,6.13-.66,3.06-.54,3.09-1.08,6.18,1-6.19.5-3.1.62-3.07,1.25-6.15L201,519.3c.25-1,.48-2,.75-3l.83-3c.57-2,1.09-4.05,1.7-6.05l1.83-6c.29-1,.62-2,1-3l1-3q4-11.91,8.78-23.52c3.2-7.74,6.65-15.38,10.5-22.82l.28.34-9,2.41c-1.5.43-3,.74-4.56,1.07l-4.57,1c-.77.16-1.53.34-2.29.49l-2.31.39-4.62.78c-1.53.3-3.09.43-4.64.62l-4.65.52-4.68.26c-.78,0-1.56.11-2.34.11l-2.34,0c-1.56,0-3.13,0-4.68-.14l-2.34-.2-1.17-.1c-.38,0-.77-.12-1.15-.17l-2.32-.38c-.38-.07-.77-.11-1.15-.2l-1.14-.28-2.27-.57-2.22-.75a18.5,18.5,0,0,1-2.16-.89l-1.07-.48-1-.58A13.65,13.65,0,0,1,155.19,449.23Z" opacity="0.2"/>
<path d="M230,542.67c-3.3.4-6.6.75-9.9,1.08s-6.61.63-9.92.94-6.61.57-9.92.82l-5,.37c-1.66.1-3.32.22-5,.31,1.64-.21,3.3-.38,4.95-.57l4.95-.52c3.3-.33,6.61-.63,9.92-.94s6.61-.57,9.92-.82S226.72,542.85,230,542.67Z" opacity="0.2"/>
<path d="M292.08,464.55c-2.49,2.58-4.82,5.3-7.1,8.07-1.13,1.39-2.27,2.77-3.36,4.19L280,478.93l-1.6,2.16c-4.26,5.75-8.3,11.67-12.07,17.76-.95,1.52-1.86,3.06-2.79,4.59l-1.38,2.3-1.32,2.34-2.64,4.68-2.5,4.76-1.26,2.37c-.42.79-.79,1.61-1.19,2.41l-2.36,4.82-.6,1.21-.55,1.22L248.59,532l-2.22,4.89,2.1-4.95,1.06-2.47.53-1.24.56-1.22,2.3-4.86c.39-.81.75-1.63,1.16-2.43l1.23-2.39,2.46-4.79,2.62-4.7,1.31-2.35,1.37-2.31c.93-1.54,1.83-3.09,2.77-4.61,3.82-6.08,7.87-12,12.21-17.73A156.62,156.62,0,0,1,292.08,464.55Z" fill="#2f2e41" data-secondary="true"/>
<rect x="258.53" y="521.44" width="0.54" height="33.42" transform="translate(-286.88 780.66) rotate(-88.28)" fill="#2f2e41" data-secondary="true"/>
<path d="M214.69,463.33a55.48,55.48,0,0,1,5.39-7.62,66.61,66.61,0,0,1,6.51-6.72,53.89,53.89,0,0,1,7.49-5.6,44.51,44.51,0,0,1,8.4-4.05l-2.11,1-1.06.49-1,.57-2,1.11-2,1.25c-.67.4-1.29.86-1.92,1.31s-1.28.88-1.88,1.37l-1.81,1.45c-.6.48-1.16,1-1.75,1.52a74.07,74.07,0,0,0-6.55,6.59l-1.51,1.77c-.48.6-1,1.2-1.45,1.81Q216,461.39,214.69,463.33Z" opacity="0.2"/>
<path d="M316.25,404.74l10.59-9.09a2.72,2.72,0,0,1,1.78-.66h23.72l1.74,2.27s.83.84-.27,2l-28.61,24.2-24.19-9Z" fill="#14b3c8" data-primary="true"/>
<ellipse cx="330.57" cy="400" rx="1.9" ry="0.88" transform="translate(-95.67 104.03) rotate(-15.65)" fill="#fff"/>
<ellipse cx="327.61" cy="402.26" rx="1.9" ry="0.88" transform="translate(-96.38 103.31) rotate(-15.65)" fill="#fff"/>
<ellipse cx="324.77" cy="404.63" rx="1.9" ry="0.88" transform="translate(-97.13 102.63) rotate(-15.65)" fill="#fff"/>
<path d="M266.45,312.57l3-3.05-8.48-21.78S253.75,300.25,266.45,312.57Z" fill="#f7a48b"/>
<ellipse cx="278.73" cy="284.58" rx="28.58" ry="18.08" transform="translate(-62.32 490.4) rotate(-76.71)" fill="#f9b499"/>
<path d="M263.75,274.21s11.16,0,16.93-9.55a13,13,0,0,0,4.86,3.8,16.28,16.28,0,0,0,2,.81,9.7,9.7,0,0,1,5.77,5.66s.9-2.34-3.6-6.12c0,0,9,3.42,7.74,10.26,0,0,10.81-9.72,4.69-21.61,0,0-6.13-10.81-24.49-6.3,0,0-5.77-7.93-17.11-.72,0,0-11.17,5-8.29,36.37Z" fill="#2f2e41" data-secondary="true"/>
<ellipse cx="262.26" cy="279.61" rx="4.67" ry="6.54" transform="translate(-58.87 70.24) rotate(-13.73)" fill="#f9b499"/>
<path d="M195.39,366.41l4.71,36.83s-.59,11.19,13,13.84l67.17,16.5s18.26,4.71,33,2.94c0,0,10.31,1.18,6.78-2.94,0,0,11.19,2.06,8.54-4.42,0,0,5.25-.48,4.37-2.94a2.05,2.05,0,0,0-1.17-1.14l-27.28-10.8a.2.2,0,0,1,0-.36l2-1.26s9-2.75,10-8.48a1,1,0,0,0-1.28-1.08c-2.95,1-10.12,3.15-15.16,3.38,0,0-13.84.29-18.85,10.9l-53.32-23,2.65-28.28Z" fill="#f9b499"/>
<path d="M328.54,429.16a42.31,42.31,0,0,1-6.76-1.07,41.05,41.05,0,0,1-6.52-2,47.48,47.48,0,0,1,13.28,3.12Z" fill="#f7a48b"/>
<path d="M320,433.58a19.15,19.15,0,0,1-4.62-.53,18.6,18.6,0,0,1-4.4-1.5,18.58,18.58,0,0,1,4.61.53A19.3,19.3,0,0,1,320,433.58Z" fill="#f7a48b"/>
<path d="M313.22,436.52a9.33,9.33,0,0,1-3.14-.69,9.15,9.15,0,0,1-2.78-1.63,10.48,10.48,0,0,1,5.92,2.32Z" fill="#f7a48b"/>
<rect x="465.09" y="463.11" width="160.87" height="128.03" rx="20.36" fill="#14b3c8" data-primary="true"/>
<path d="M553,537.48,559.79,570H536.65l6.72-32.49a23.86,23.86,0,1,1,9.61-.06Z" fill="#2f2e41" data-secondary="true"/>
<rect x="481.83" y="573.59" width="29.55" height="12.1" fill="#fff" opacity="0.7"/>
<path d="M723.13,201.27c-49-62.28-104.82-60.44-104.82-60.44-67.67,6.55-105.74,59.42-105.74,59.42-4.22,6.55,0,10.29,0,10.29s54.76,57.33,105.3,53.17c0,0,46.83,3.7,103.1-49.55a12.77,12.77,0,0,0,3.71-5A8.58,8.58,0,0,0,723.13,201.27Zm-10.81,6.89a11.33,11.33,0,0,1-3.27,4.47c-49.65,47.19-91,43.91-91,43.91-44.6,3.69-92.91-47.12-92.91-47.12s-3.73-3.32,0-9.12c0,0,33.59-46.85,93.29-52.66,0,0,49.23-1.62,92.48,53.57A7.6,7.6,0,0,1,712.32,208.16Z" fill="#14b3c8" data-primary="true"/>
<circle cx="617.54" cy="202.37" r="18.05" fill="#2f2e41" data-secondary="true"/>
<circle cx="606.84" cy="183.79" r="9.25" fill="#fff" opacity="0.7"/>
<path d="M641.11,329.76C613,293,581,294.09,581,294.09c-38.79,3.87-60.61,35.07-60.61,35.07-2.43,3.86,0,6.07,0,6.07s31.38,33.84,60.36,31.38c0,0,26.84,2.18,59.1-29.24a7.5,7.5,0,0,0,2.12-3A5.19,5.19,0,0,0,641.11,329.76Zm-6.19,4.07a6.78,6.78,0,0,1-1.88,2.64c-28.46,27.84-52.14,25.91-52.14,25.91-25.56,2.18-53.26-27.81-53.26-27.81s-2.14-2,0-5.38c0,0,19.25-27.65,53.48-31.08,0,0,28.22-1,53,31.61A4.63,4.63,0,0,1,634.92,333.83Z" fill="#14b3c8" data-primary="true"/>
<ellipse cx="580.59" cy="330.41" rx="10.35" ry="10.65" fill="#2f2e41" data-secondary="true"/>
<ellipse cx="574.46" cy="319.45" rx="5.3" ry="5.46" fill="#fff" opacity="0.5"/>
<path d="M525.34,86.18c-28.09-36.75-60.08-35.67-60.08-35.67-38.79,3.87-60.61,35.07-60.61,35.07-2.42,3.86,0,6.07,0,6.07S436,125.49,465,123c0,0,26.84,2.18,59.1-29.24a7.46,7.46,0,0,0,2.12-3A5.15,5.15,0,0,0,525.34,86.18Zm-6.19,4.07a6.64,6.64,0,0,1-1.88,2.64c-28.46,27.84-52.14,25.91-52.14,25.91C439.57,121,411.88,91,411.88,91s-2.14-2,0-5.38c0,0,19.25-27.65,53.47-31.08,0,0,28.23-1,53,31.61A4.63,4.63,0,0,1,519.15,90.25Z" fill="#14b3c8" data-primary="true"/>
<ellipse cx="464.82" cy="86.83" rx="10.35" ry="10.65" fill="#2f2e41" data-secondary="true"/>
<ellipse cx="458.69" cy="75.87" rx="5.3" ry="5.46" fill="#fff" opacity="0.7"/>
<path d="M380.37,41.85c-18.66-24.4-39.91-23.68-39.91-23.68-25.76,2.56-40.25,23.28-40.25,23.28-1.61,2.57,0,4,0,4S321.06,68,340.3,66.32c0,0,17.82,1.45,39.25-19.41a5,5,0,0,0,1.41-2A3.45,3.45,0,0,0,380.37,41.85Zm-4.12,2.71A4.48,4.48,0,0,1,375,46.31c-18.9,18.49-34.63,17.2-34.63,17.2C323.4,65,305,45.05,305,45.05s-1.42-1.3,0-3.58c0,0,12.79-18.36,35.52-20.63,0,0,18.74-.64,35.2,21A3,3,0,0,1,376.25,44.56Z" fill="#14b3c8" data-primary="true"/>
<ellipse cx="340.17" cy="42.29" rx="6.87" ry="7.08" fill="#2f2e41" data-secondary="true"/>
<ellipse cx="336.1" cy="35" rx="3.52" ry="3.62" fill="#fff" opacity="0.7"/>
<path d="M400.58,142.27c-32.27-42.2-69-41-69-41C287,105.75,262,141.58,262,141.58c-2.78,4.44,0,7,0,7s36,38.86,69.32,36c0,0,30.82,2.51,67.86-33.57a8.61,8.61,0,0,0,2.44-3.42A6,6,0,0,0,400.58,142.27Zm-7.11,4.67a7.69,7.69,0,0,1-2.16,3c-32.68,32-59.87,29.75-59.87,29.75-29.36,2.51-61.16-31.92-61.16-31.92s-2.46-2.25,0-6.19c0,0,17.21-24.71,48.25-33.23a52,52,0,0,1,30.08.67c12,4,28.53,12.92,43.95,33.18A5.28,5.28,0,0,1,393.47,146.94Z" fill="#14b3c8" data-primary="true"/>
<ellipse cx="331.08" cy="143.02" rx="11.88" ry="12.23" fill="#2f2e41" data-secondary="true"/>
<ellipse cx="324.04" cy="130.43" rx="6.09" ry="6.27" fill="#fff" opacity="0.7"/>
</svg>